<?xml version="1.0" standalone="no"?>
<!DOCTYPE svg PUBLIC "-//W3C//DTD SVG 20010904//EN"
 "http://www.w3.org/TR/2001/REC-SVG-20010904/DTD/svg10.dtd">
<svg version="1.0" xmlns="http://www.w3.org/2000/svg"
 width="480.000000pt" height="480.000000pt" viewBox="0 0 480.000000 480.000000"
 preserveAspectRatio="xMidYMid meet">

<g transform="translate(0.000000,480.000000) scale(0.100000,-0.100000)"
fill="#000000" stroke="none">
<path d="M2288 3570 c-243 -44 -435 -184 -542 -395 -125 -246 -94 -572 75
-785 l40 -51 -14 -122 c-8 -67 -13 -124 -11 -126 2 -2 55 17 118 43 l114 46
93 -31 c129 -44 274 -51 403 -20 251 60 447 239 532 486 26 73 28 93 28 225 1
124 -3 155 -22 214 -82 253 -281 443 -522 501 -80 19 -229 27 -292 15z m-56
-410 c9 -19 26 -58 36 -85 l20 -50 -38 -94 c-39 -99 -60 -124 -99 -119 -31 4
-39 26 -13 36 18 7 15 17 -49 171 -38 91 -69 168 -69 173 0 5 44 7 98 6 l97
-3 17 -35z m539 -7 c-11 -27 -49 -120 -86 -208 -37 -88 -69 -168 -72 -177 -11
-36 -32 -16 -58 57 -21 55 -32 75 -46 75 -13 0 -25 -20 -46 -75 -15 -41 -31
-75 -34 -75 -6 0 -40 82 -80 194 -8 22 -22 41 -32 44 -23 6 -17 26 10 30 27 4
37 -11 71 -102 l29 -78 13 33 c7 19 21 43 30 54 9 11 29 54 45 95 15 41 38 99
51 128 l23 52 100 0 101 0 -19 -47z m-733 -321 c2 -149 0 -172 -13 -172 -8 0
-15 8 -15 18 0 9 -1 86 -3 170 -2 84 -1 155 2 157 20 21 26 -16 29 -173z m322
11 c23 -65 49 -125 57 -133 13 -13 16 -13 28 4 8 10 24 48 35 82 12 35 25 64
28 64 4 0 16 -24 26 -52 36 -103 70 -115 107 -36 37 79 35 78 175 78 117 0
124 -1 124 -20 0 -19 -7 -20 -120 -20 l-120 0 -24 -54 c-24 -54 -48 -76 -83
-76 -14 0 -29 -28 -64 -113 l-47 -112 -75 -3 -76 -3 -19 38 c-10 21 -43 95
-71 166 l-53 127 31 29 c17 16 31 34 31 40 0 21 50 122 58 117 5 -3 28 -58 52
-123z m-380 -8 c0 -60 -3 -75 -15 -75 -12 0 -15 15 -15 75 0 60 3 75 15 75 12
0 15 -15 15 -75z m118 -2 c-2 -61 -6 -78 -18 -78 -12 0 -16 17 -18 78 -3 72
-2 77 18 77 20 0 21 -5 18 -77z m-180 0 c-4 -20 -45 -30 -60 -15 -16 16 1 32
33 32 24 0 30 -4 27 -17z"/>
<path d="M1620 1700 c-24 -24 -25 -43 -4 -64 18 -19 55 -21 72 -4 18 18 15 53
-6 71 -24 22 -38 21 -62 -3z"/>
<path d="M1805 1690 l-40 -5 -1 -192 -1 -193 43 0 c34 0 44 4 44 17 0 14 2 14
21 -3 15 -13 36 -19 71 -19 44 0 53 4 83 37 59 64 57 163 -4 222 -36 34 -88
43 -129 22 -17 -9 -33 -16 -35 -16 -2 0 -5 30 -6 67 -1 37 -3 68 -4 68 -1 0
-20 -2 -42 -5z m145 -190 c40 -21 31 -112 -12 -126 -67 -21 -118 66 -68 116
22 22 51 26 80 10z"/>
<path d="M2820 1501 c0 -172 2 -201 15 -201 12 0 15 18 15 99 0 91 2 102 24
127 30 36 86 39 119 6 19 -20 22 -35 25 -127 2 -58 8 -105 13 -105 5 0 9 50 9
111 0 109 0 111 -29 140 -36 36 -94 40 -134 9 l-26 -21 -3 77 c-2 51 -7 79
-15 82 -10 3 -13 -41 -13 -197z"/>
<path d="M1200 1682 c0 -9 105 -314 125 -364 6 -14 19 -18 59 -18 l51 0 62
174 c35 96 66 181 69 190 5 13 -2 16 -45 16 l-50 0 -42 -130 c-23 -72 -44
-128 -47 -125 -4 3 -25 63 -47 133 l-41 127 -47 3 c-26 2 -47 -1 -47 -6z"/>
<path d="M2544 1671 c-75 -34 -109 -117 -92 -225 14 -95 74 -149 164 -149 58
0 93 17 120 58 27 42 5 49 -30 9 -27 -31 -39 -37 -82 -41 -44 -5 -54 -2 -82
22 -48 40 -65 81 -65 150 0 104 41 156 128 163 55 4 57 4 95 -37 32 -34 41
-39 46 -26 8 20 -30 63 -73 81 -43 19 -80 17 -129 -5z"/>
<path d="M3437 1653 c-4 -3 -7 -21 -7 -39 0 -26 -5 -33 -22 -36 -32 -5 -35
-28 -4 -28 l26 0 0 -96 c0 -126 14 -154 78 -154 23 0 32 4 29 13 -2 6 -12 11
-22 9 -9 -2 -26 4 -36 14 -16 15 -19 31 -19 115 l0 98 38 3 c20 2 37 8 37 13
0 6 -17 11 -37 13 -37 3 -38 4 -38 43 0 37 -8 48 -23 32z"/>
<path d="M2179 1570 c-50 -26 -73 -77 -67 -148 4 -48 10 -60 40 -88 64 -58
181 -52 222 11 15 23 15 24 -19 34 -28 8 -42 6 -65 -7 -27 -15 -32 -15 -57 -2
-53 30 -40 39 64 42 l98 3 -1 42 c-2 105 -116 165 -215 113z m115 -66 c27 -26
18 -34 -39 -34 -59 0 -64 4 -38 32 20 22 56 23 77 2z"/>
<path d="M1610 1440 l0 -140 45 0 45 0 0 103 c0 56 -3 119 -6 140 -6 35 -8 37
-45 37 l-39 0 0 -140z"/>
<path d="M3156 1559 c-14 -11 -26 -27 -26 -35 0 -20 10 -18 37 8 47 44 133 17
133 -42 0 -26 -3 -27 -59 -33 -73 -8 -106 -22 -120 -54 -16 -34 -14 -47 10
-77 17 -22 29 -26 68 -26 34 0 56 6 75 21 l26 20 0 -20 c0 -12 6 -21 15 -21
12 0 15 19 15 111 0 109 0 111 -29 140 -37 37 -104 41 -145 8z m144 -153 c0
-67 -89 -110 -140 -68 -53 43 6 96 113 101 24 1 27 -2 27 -33z"/>
</g>
</svg>
